<svg width="35" height="22" viewBox="0 0 35 22" fill="none" xmlns="http://www.w3.org/2000/svg">
<g clip-path="url(#clip0_60_1710)">
<path d="M0.770508 2.74463C0.770508 1.22881 2.01344 0 3.54668 0H31.3084C32.8417 0 34.0846 1.22881 34.0846 2.74463V19.2124C34.0846 20.7282 32.8417 21.957 31.3084 21.957H3.54668C2.01344 21.957 0.770508 20.7282 0.770508 19.2124V2.74463Z" fill="#D4DEF7"/>
<path d="M25.3554 6.77289L24.7108 8.17772H26.0035L25.3554 6.77289ZM17.9173 7.64344C18.0388 7.58643 18.1103 7.46242 18.1103 7.30842C18.1103 7.15751 18.0351 7.04821 17.9137 6.99685C17.803 6.93992 17.6328 6.93334 17.4695 6.93334H16.3163V7.71609H17.4541C17.6363 7.71613 17.7885 7.71372 17.9173 7.64344ZM3.14043 6.77289L2.50313 8.17772H3.78157L3.14043 6.77289ZM32.812 15.7727H31.0034V15.0168H32.8047C32.9832 15.0168 33.1083 14.9958 33.1836 14.9295C33.2548 14.8704 33.295 14.787 33.2943 14.6997C33.2943 14.597 33.249 14.5154 33.1798 14.4666C33.112 14.4128 33.013 14.3883 32.8499 14.3883C31.9705 14.3615 30.8735 14.4127 30.8735 13.2973C30.8735 12.7861 31.2344 12.248 32.2172 12.248H34.0827V11.5467H32.3495C31.8265 11.5467 31.4464 11.6594 31.1774 11.8346V11.5467H28.6137C28.2038 11.5467 27.7227 11.6381 27.4951 11.8346V11.5467H22.9169V11.8346C22.5526 11.5982 21.9377 11.5467 21.6541 11.5467H18.6343V11.8346C18.3462 11.5835 17.705 11.5467 17.3145 11.5467H13.9349L13.1616 12.2995L12.4373 11.5467H7.38879V16.4654H12.342L13.1388 15.7005L13.8895 16.4654L16.9426 16.4678V15.3107H17.2429C17.648 15.3166 18.1257 15.3018 18.5474 15.1379V16.4652H21.0657V15.1832H21.1872C21.3422 15.1832 21.3575 15.189 21.3575 15.3284V16.4649H29.008C29.4937 16.4649 30.0014 16.3532 30.2825 16.1501V16.4649H32.7092C33.2142 16.4649 33.7074 16.4013 34.0826 16.2383V15.322C33.8552 15.6212 33.4117 15.7729 32.8119 15.7729L32.812 15.7727ZM17.283 14.6113H16.1144V15.7936H14.2941L13.1409 14.6268L11.9425 15.7936H8.2329V12.2688H11.9996L13.1518 13.4242L14.343 12.2688H17.3355C18.0788 12.2688 18.9138 12.4539 18.9138 13.43C18.9138 14.4092 18.1016 14.6113 17.283 14.6113ZM22.9021 14.4515C23.0344 14.6235 23.0535 14.7841 23.0573 15.0948V15.7936H22.117V15.3526C22.117 15.1406 22.1397 14.8266 21.9656 14.6627C21.8289 14.5365 21.6202 14.5063 21.2785 14.5063H20.2777V15.7936H19.3367V12.2688H21.4987C21.973 12.2688 22.3183 12.2878 22.6256 12.4351C22.9212 12.5957 23.1072 12.8158 23.1072 13.2179C23.1071 13.7804 22.6899 14.0674 22.4434 14.1556C22.6518 14.2248 22.8221 14.3488 22.9021 14.4515ZM26.7707 12.9978H24.5776V13.6385H26.7171V14.3577H24.5776V15.059L26.7707 15.0622V15.7936H23.645V12.2688H26.7707V12.9978ZM29.1772 15.7935H27.3532V15.0377H29.1699C29.3476 15.0377 29.4736 15.0165 29.5525 14.9503C29.6169 14.8959 29.6632 14.8166 29.6632 14.7206C29.6632 14.6178 29.613 14.5363 29.5489 14.4874C29.4772 14.4336 29.3783 14.4093 29.2153 14.4093C28.3395 14.3823 27.2427 14.4335 27.2427 13.3182C27.2427 12.807 27.5999 12.2688 28.5817 12.2688H30.4593V13.0189H28.7412C28.5709 13.0189 28.4602 13.0248 28.3661 13.0828C28.2633 13.1399 28.2253 13.2245 28.2253 13.3362C28.2253 13.4692 28.3125 13.5597 28.4302 13.5988C28.5291 13.6297 28.6351 13.6387 28.7947 13.6387L29.2989 13.6511C29.8071 13.6621 30.1562 13.7413 30.3684 13.9345C30.5506 14.1042 30.6485 14.3185 30.6485 14.6812C30.6484 15.4395 30.1217 15.7935 29.1772 15.7935ZM21.9137 13.0546C21.8006 12.9941 21.6336 12.9909 21.4669 12.9909H20.3137V13.7825H21.4515C21.6337 13.7825 21.7886 13.7767 21.9137 13.7099C22.0351 13.6439 22.1077 13.5223 22.1077 13.3716C22.1077 13.2208 22.0351 13.1117 21.9137 13.0546ZM32.3776 12.9909C32.2072 12.9909 32.0939 12.9967 31.9986 13.0545C31.8997 13.1117 31.8618 13.1963 31.8618 13.3082C31.8618 13.441 31.9452 13.5316 32.0666 13.5707C32.1655 13.6016 32.2714 13.6107 32.4274 13.6107L32.9351 13.6228C33.4472 13.6342 33.7892 13.7135 33.9977 13.9067C34.0357 13.9335 34.0585 13.9636 34.0846 13.9938V12.9909H32.3776L32.3776 12.9909ZM17.3154 12.9909H16.0943V13.8886H17.3046C17.6644 13.8886 17.8881 13.728 17.8883 13.4231C17.8881 13.1148 17.6535 12.9909 17.3154 12.9909ZM9.16567 12.9909V13.6317H11.2216V14.3509H9.16567V15.0521H11.4682L12.538 14.0181L11.5136 12.9909H9.16567ZM15.1781 15.4558V12.6299L13.7403 14.0201L15.1781 15.4558ZM9.24426 9.79658V10.4039H17.0685L17.0649 9.11908H17.2163C17.3224 9.12241 17.3532 9.13119 17.3532 9.28863V10.404H21.4V10.1048C21.7264 10.2621 22.234 10.404 22.9021 10.404H24.6046L24.9689 9.62125H25.7767L26.133 10.404H29.4137V9.66046L29.9104 10.4039H32.5395V5.48926H29.9378V6.06969L29.5734 5.48926H26.9037V6.06969L26.5691 5.48926H22.9628C22.3591 5.48926 21.8286 5.56503 21.4 5.77625V5.48926H18.9113V5.77625C18.6385 5.55854 18.2668 5.48926 17.8537 5.48926H8.76171L8.1517 6.7587L7.52521 5.48926H4.66155V6.06969L4.3469 5.48926H1.90466L0.770551 7.82606V9.69526L2.44757 6.17129H3.83906L5.43176 9.50774V6.17129H6.96036L8.18596 8.56186L9.31191 6.17129H10.8712V9.69526H9.91124L9.90774 6.93535L8.54969 9.69526H7.72741L6.3659 6.9329V9.69526H4.46098L4.10114 8.90923H2.15119L1.78763 9.69526H0.770508V10.4042H2.37073L2.73151 9.62145H3.53935L3.8992 10.4042H7.04757V9.80572L7.32857 10.4067H8.96296L9.244 9.7967L9.24426 9.79658ZM21.5737 6.58204C21.8763 6.30079 22.3506 6.17109 22.9959 6.17109H23.9026V6.92617H23.0149C22.6733 6.92617 22.4802 6.97187 22.2944 7.13497C22.1346 7.28332 22.0251 7.56381 22.0251 7.93315C22.0251 8.31071 22.1086 8.58291 22.2826 8.76072C22.4268 8.90017 22.6889 8.94247 22.9353 8.94247H23.3561L24.6759 6.17121H26.0791L27.6647 9.50434V6.17125H29.0907L30.7369 8.62549V6.17125H31.6962V9.6951H30.3691L28.5939 7.05022V9.6951H26.6866L26.3222 8.90907H24.3767L24.0231 9.6951H22.9272C22.472 9.6951 21.8956 9.60457 21.5692 9.30531C21.2401 9.00613 21.069 8.60083 21.069 7.96006C21.0688 7.43736 21.171 6.9596 21.5737 6.58204ZM19.6474 6.17113H20.6029V9.6951H19.6474V6.17113ZM15.3391 6.17113H17.4931C17.9716 6.17113 18.3245 6.18255 18.6273 6.33992C18.9235 6.49733 19.1011 6.72714 19.1011 7.12014C19.1011 7.68205 18.6841 7.97229 18.4413 8.05949C18.6462 8.12965 18.8213 8.25358 18.9047 8.35622C19.0369 8.53151 19.0597 8.68807 19.0597 9.00277V9.69506H18.1151L18.1116 9.25066C18.1116 9.03857 18.1341 8.73362 17.9638 8.56418C17.827 8.4403 17.6183 8.41331 17.2811 8.41331H16.2758V9.6951H15.3392L15.3391 6.17113ZM11.5637 6.17113H14.6923V6.90496H12.5004V7.54016H14.6397V8.26252H12.5004V8.96628H14.6923V9.69506H11.5637V6.17113Z" fill="#2557D6"/>
</g>
<defs>
<clipPath id="clip0_60_1710">
<rect width="33.3141" height="21.957" fill="white" transform="translate(0.770508)"/>
</clipPath>
</defs>
</svg>
