<svg width="35" height="22" viewBox="0 0 35 22" fill="none" xmlns="http://www.w3.org/2000/svg">
<g clip-path="url(#clip0_60_1698)">
<path d="M0.699219 2.74463C0.699219 1.22881 1.9704 0 3.53849 0H31.9312C33.4993 0 34.7705 1.22881 34.7705 2.74463V19.2124C34.7705 20.7282 33.4993 21.957 31.9312 21.957H3.53849C1.9704 21.957 0.699219 20.7282 0.699219 19.2124V2.74463Z" fill="#FCE0CF"/>
<path d="M20.985 10.964C20.9876 10.3741 20.7587 9.78335 20.2983 9.33817C19.8368 8.89207 19.2241 8.67107 18.6126 8.67462C18.6097 8.67462 18.6069 8.67444 18.6038 8.67444C17.2759 8.67444 16.2227 9.69238 16.2227 10.9764C16.2227 12.2477 17.2889 13.2781 18.6038 13.2781C19.9321 13.2781 20.9853 12.26 20.9853 10.9764C20.9853 10.9721 20.985 10.9682 20.985 10.964Z" fill="#F26E21"/>
<path d="M15.7811 11.9507C15.4252 12.2951 15.0967 12.4297 14.7428 12.437C13.8809 12.4295 13.2471 11.8124 13.2471 10.9327C13.2471 10.4898 13.4206 10.1269 13.6954 9.81678C13.9531 9.5803 14.285 9.42749 14.6668 9.42749C15.0789 9.42749 15.3996 9.56028 15.7657 9.91443V8.8963C15.3996 8.71932 15.0788 8.63074 14.6668 8.63074C14.0847 8.67096 13.5358 8.89832 13.1148 9.25535C12.9934 9.36089 12.8772 9.47739 12.7786 9.61072C12.471 9.99603 12.2852 10.4678 12.2852 10.9771C12.2852 12.2607 13.3388 13.2345 14.6667 13.2345C14.6732 13.2345 14.6796 13.234 14.6858 13.2339C14.6948 13.2341 14.7036 13.2345 14.7124 13.2345C15.0787 13.2345 15.3996 13.1462 15.8116 12.9691L15.7811 11.9507C15.7656 11.9657 15.7964 11.9796 15.7811 11.9937V11.9507Z" fill="#2B2B2B"/>
<path d="M23.9921 9.2651L22.955 11.7299L21.7643 8.80798H20.8027L22.6802 13.2791H23.1839L25.1531 8.80798H24.1915L23.9921 9.2651Z" fill="#2B2B2B"/>
<path d="M25.5195 10.7558V13.1465H27.9925H28.0381V12.4379H27.2597H26.4354V11.6413V11.243H27.9925V10.4902H26.4354V9.56066H28.0381V8.80798H25.5195V10.7558Z" fill="#2B2B2B"/>
<path d="M4.82057 8.80896H3.53809V13.1474H4.82051C5.50731 13.1474 6.01097 12.9702 6.42312 12.6603C6.92678 12.2619 7.24748 11.6423 7.24748 10.9784C7.24754 9.6943 6.28569 8.80896 4.82057 8.80896ZM5.87374 12.085C5.59895 12.3062 5.23259 12.4389 4.68302 12.4389H4.40823V9.56158H4.63717C5.18674 9.56158 5.5531 9.6501 5.82795 9.9156C6.14846 10.181 6.33173 10.5797 6.33173 10.9782C6.37752 11.3766 6.19437 11.8191 5.87374 12.085Z" fill="#2B2B2B"/>
<path d="M8.53024 8.80786H7.66016V13.1462H8.53024V8.80786Z" fill="#2B2B2B"/>
<path d="M10.7284 10.4908C10.179 10.3137 10.0414 10.1808 10.0414 9.95957C10.0414 9.69394 10.3162 9.47264 10.6826 9.47264C10.9573 9.47264 11.1863 9.56122 11.4153 9.82685L11.8733 9.2514C11.5069 8.94139 11.0491 8.76453 10.5453 8.76453C9.76663 8.76453 9.12548 9.29578 9.12548 10.0038C9.12548 10.6237 9.40052 10.8893 10.2247 11.1992C10.5911 11.3318 10.7285 11.3762 10.8202 11.4647C11.0031 11.5531 11.0948 11.7304 11.0948 11.9072C11.0948 12.2614 10.8202 12.5271 10.4078 12.5271C9.99531 12.5271 9.62927 12.3058 9.44606 11.9516L8.89648 12.4829C9.30882 13.0583 9.81254 13.3239 10.4537 13.3239C11.3695 13.3239 12.0103 12.7484 12.0103 11.9072C12.0105 11.1549 11.7359 10.845 10.7284 10.4908Z" fill="#2B2B2B"/>
<path d="M30.5115 11.3312C31.1982 11.1986 31.5647 10.7558 31.5647 10.0919C31.5647 9.29522 30.9692 8.80798 29.9619 8.80798H28.6338V13.1465H29.5039V11.4198H29.6414L30.8775 13.1465H31.931L30.5115 11.3312ZM29.7785 10.8H29.5039V9.47208H29.7785C30.3281 9.47208 30.6488 9.69332 30.6488 10.1363C30.6488 10.5788 30.3282 10.8 29.7785 10.8Z" fill="#2B2B2B"/>
</g>
<defs>
<clipPath id="clip0_60_1698">
<rect width="34.0712" height="21.957" fill="white" transform="translate(0.699219)"/>
</clipPath>
</defs>
</svg>
