<svg width="34" height="34" viewBox="0 0 34 34" fill="none" xmlns="http://www.w3.org/2000/svg">
<circle r="15.6456" transform="matrix(-1 0 0 1 17.1352 16.6456)" fill="white" stroke="#CACDD8" stroke-width="2"/>
<g clip-path="url(#clip0_154_4104)">
<path d="M25.7179 16.8465C25.5562 16.6253 21.7029 11.4297 16.7816 11.4297C11.8603 11.4297 8.00689 16.6253 7.84534 16.8463C7.69218 17.0562 7.69218 17.3408 7.84534 17.5507C8.00689 17.7719 11.8603 22.9675 16.7816 22.9675C21.7029 22.9675 25.5562 17.7719 25.7179 17.5509C25.8713 17.341 25.8713 17.0562 25.7179 16.8465ZM16.7816 21.774C13.1566 21.774 10.0169 18.3256 9.08745 17.1982C10.0157 16.0699 13.1488 12.6233 16.7816 12.6233C20.4065 12.6233 23.546 16.0711 24.4758 17.199C23.5476 18.3273 20.4145 21.774 16.7816 21.774Z" fill="#A2A6B0"/>
<path d="M16.7814 13.6172C14.807 13.6172 13.2007 15.2235 13.2007 17.1979C13.2007 19.1723 14.807 20.7786 16.7814 20.7786C18.7558 20.7786 20.3621 19.1723 20.3621 17.1979C20.3621 15.2235 18.7558 13.6172 16.7814 13.6172ZM16.7814 19.585C15.4651 19.585 14.3943 18.5142 14.3943 17.1979C14.3943 15.8816 15.4651 14.8108 16.7814 14.8108C18.0977 14.8108 19.1685 15.8816 19.1685 17.1979C19.1685 18.5142 18.0977 19.585 16.7814 19.585Z" fill="#A2A6B0"/>
</g>
<defs>
<clipPath id="clip0_154_4104">
<rect width="18.1025" height="18.1025" fill="white" transform="translate(7.73047 8.14648)"/>
</clipPath>
</defs>
</svg>
