<svg width="34" height="22" viewBox="0 0 34 22" fill="none" xmlns="http://www.w3.org/2000/svg">
<g clip-path="url(#clip0_60_1692)">
<path d="M0.385742 2.74463C0.385742 1.22881 1.62868 0 3.16192 0H30.9237C32.4569 0 33.6998 1.22881 33.6998 2.74463V19.2124C33.6998 20.7282 32.4569 21.957 30.9237 21.957H3.16192C1.62868 21.957 0.385742 20.7282 0.385742 19.2124V2.74463Z" fill="#CCEFFF"/>
<path d="M20.6872 17.4544H13.4004V4.50757H20.6872V17.4544Z" fill="#6C6BBD"/>
<path d="M13.8667 10.9785C13.8667 8.3522 15.1105 6.01275 17.0475 4.50512C15.631 3.40266 13.8434 2.74464 11.9007 2.74464C7.30146 2.74464 3.57324 6.43102 3.57324 10.9785C3.57324 15.526 7.30146 19.2124 11.9007 19.2124C13.8434 19.2124 15.631 18.5544 17.0475 17.4519C15.1105 15.9443 13.8667 13.6048 13.8667 10.9785Z" fill="#EB001B"/>
<path d="M30.5138 10.9785C30.5138 15.526 26.7856 19.2124 22.1863 19.2124C20.2436 19.2124 18.456 18.5544 17.0391 17.4519C18.9765 15.9443 20.2203 13.6048 20.2203 10.9785C20.2203 8.3522 18.9765 6.01275 17.0391 4.50512C18.456 3.40266 20.2436 2.74464 22.1863 2.74464C26.7856 2.74464 30.5138 6.43102 30.5138 10.9785Z" fill="#0099DF"/>
</g>
<defs>
<clipPath id="clip0_60_1692">
<rect width="33.3141" height="21.957" fill="white" transform="translate(0.385742)"/>
</clipPath>
</defs>
</svg>
