<svg width="35" height="22" viewBox="0 0 35 22" fill="none" xmlns="http://www.w3.org/2000/svg">
<g clip-path="url(#clip0_60_1683)">
<path d="M0 2.74463C0 1.22881 1.27118 0 2.83927 0H31.232C32.8 0 34.0712 1.22881 34.0712 2.74463V19.2124C34.0712 20.7282 32.8 21.957 31.232 21.957H2.83927C1.27118 21.957 0 20.7282 0 19.2124V2.74463Z" fill="#CCDEFF"/>
<path d="M7.64491 7.90276C7.28904 7.66626 6.82465 7.54773 6.25174 7.54773H4.03377C3.85814 7.54773 3.76111 7.63264 3.74268 7.80229L2.8417 13.2695C2.83233 13.3232 2.84623 13.3723 2.88326 13.4169C2.92008 13.4617 2.96639 13.4839 3.02186 13.4839H4.07538C4.26016 13.4839 4.36173 13.3992 4.38037 13.2293L4.62985 11.7554C4.63896 11.684 4.67146 11.6259 4.72692 11.5812C4.78235 11.5365 4.85167 11.5073 4.93484 11.494C5.01802 11.4807 5.09645 11.474 5.17051 11.474C5.24436 11.474 5.33211 11.4785 5.43393 11.4874C5.5355 11.4963 5.60024 11.5007 5.62799 11.5007C6.42271 11.5007 7.0465 11.2842 7.49941 10.8508C7.95211 10.4176 8.17871 9.81689 8.17871 9.04842C8.17871 8.52136 8.00062 8.1395 7.64491 7.90264V7.90276ZM6.50135 9.54439C6.455 9.85711 6.335 10.0625 6.14094 10.1608C5.94684 10.2592 5.6696 10.3082 5.30923 10.3082L4.85175 10.3215L5.08746 8.8877C5.10585 8.78952 5.16589 8.74037 5.26763 8.74037H5.53109C5.90057 8.74037 6.16874 8.79186 6.33509 8.89442C6.50135 8.99722 6.55682 9.21394 6.50135 9.54439V9.54439Z" fill="#003087"/>
<path d="M31.0506 7.54773H30.0249C29.923 7.54773 29.863 7.59688 29.8447 7.69522L28.9436 13.2697L28.9297 13.2965C28.9297 13.3414 28.9482 13.3836 28.9852 13.4239C29.022 13.464 29.0684 13.4841 29.1238 13.4841H30.0388C30.2141 13.4841 30.3112 13.3994 30.33 13.2295L31.231 7.74884V7.73553C31.2309 7.6104 31.1707 7.54789 31.0506 7.54789V7.54773Z" fill="#009CDE"/>
<path d="M18.6579 9.70651C18.6579 9.66195 18.6393 9.61943 18.6026 9.57934C18.5655 9.53915 18.5239 9.51892 18.4778 9.51892H17.4104C17.3086 9.51892 17.2254 9.56381 17.1608 9.6529L15.6914 11.7434L15.0815 9.73338C15.0351 9.59056 14.9335 9.51892 14.7766 9.51892H13.7367C13.6904 9.51892 13.6488 9.53907 13.6121 9.57934C13.575 9.61943 13.5566 9.66203 13.5566 9.70651C13.5566 9.72449 13.6468 9.98794 13.8269 10.4971C14.0071 11.0065 14.2012 11.5559 14.4091 12.1456C14.6171 12.7351 14.7256 13.0479 14.7349 13.0834C13.977 14.0841 13.5982 14.6201 13.5982 14.6914C13.5982 14.8077 13.6582 14.8656 13.7785 14.8656H14.8458C14.9474 14.8656 15.0306 14.8211 15.0954 14.7317L18.6303 9.80027C18.6487 9.78257 18.6579 9.75144 18.6579 9.70647V9.70651Z" fill="#003087"/>
<path d="M28.598 9.51689H27.5444C27.4149 9.51689 27.3366 9.66434 27.3089 9.95921C27.0683 9.60196 26.6296 9.4231 25.9918 9.4231C25.3265 9.4231 24.7603 9.66434 24.2938 10.1468C23.827 10.6292 23.5938 11.1966 23.5938 11.8487C23.5938 12.3759 23.7532 12.7957 24.0719 13.1083C24.3907 13.4212 24.8181 13.5773 25.3543 13.5773C25.6223 13.5773 25.8949 13.5236 26.1721 13.4165C26.4493 13.3093 26.6663 13.1664 26.8237 12.9877C26.8237 12.9967 26.8143 13.0367 26.796 13.1081C26.7773 13.1797 26.7682 13.2335 26.7682 13.2689C26.7682 13.4121 26.8281 13.4833 26.9485 13.4833H27.905C28.0804 13.4833 28.1822 13.3986 28.2098 13.2288L28.7782 9.73127C28.7874 9.67762 28.7735 9.62859 28.7366 9.58386C28.6995 9.5393 28.6534 9.51689 28.598 9.51689V9.51689ZM26.789 12.1569C26.5533 12.3802 26.2691 12.4918 25.9364 12.4918C25.6683 12.4918 25.4513 12.4205 25.2849 12.2775C25.1185 12.1348 25.0353 11.9383 25.0353 11.6878C25.0353 11.3576 25.1508 11.0781 25.382 10.8504C25.6127 10.6225 25.8994 10.5087 26.2414 10.5087C26.4999 10.5087 26.7148 10.5824 26.886 10.7297C27.0568 10.8771 27.1425 11.0804 27.1425 11.3395C27.1424 11.6611 27.0246 11.9336 26.789 12.1569Z" fill="#009CDE"/>
<path d="M12.8501 9.51689H11.7965C11.6669 9.51689 11.5886 9.66434 11.5608 9.95921C11.3113 9.60196 10.8723 9.4231 10.2439 9.4231C9.57847 9.4231 9.01235 9.66434 8.54572 10.1468C8.07896 10.6292 7.8457 11.1966 7.8457 11.8487C7.8457 12.3759 8.00515 12.7957 8.32399 13.1083C8.64283 13.4212 9.07014 13.5773 9.60622 13.5773C9.86485 13.5773 10.133 13.5236 10.4102 13.4165C10.6874 13.3093 10.9093 13.1664 11.0756 12.9877C11.0385 13.0948 11.0201 13.1886 11.0201 13.2689C11.0201 13.4121 11.0802 13.4833 11.2003 13.4833H12.1568C12.3323 13.4833 12.4341 13.3986 12.4618 13.2288L13.0301 9.73127C13.0393 9.67762 13.0254 9.62859 12.9886 9.58386C12.9516 9.5393 12.9054 9.51689 12.8501 9.51689V9.51689ZM11.041 12.1635C10.8053 12.3826 10.5164 12.4918 10.1747 12.4918C9.90651 12.4918 9.69164 12.4205 9.53004 12.2775C9.36822 12.1348 9.28742 11.9383 9.28742 11.6878C9.28742 11.3576 9.40288 11.0781 9.63402 10.8504C9.8649 10.6225 10.1514 10.5086 10.4935 10.5086C10.7521 10.5086 10.967 10.5824 11.1381 10.7297C11.3089 10.8771 11.3945 11.0804 11.3945 11.3395C11.3945 11.6701 11.2767 11.9449 11.041 12.1635V12.1635Z" fill="#003087"/>
<path d="M23.3921 7.90276C23.0362 7.66626 22.572 7.54773 21.9989 7.54773H19.7948C19.6099 7.54773 19.5082 7.63264 19.4898 7.80229L18.5888 13.2695C18.5794 13.3232 18.5933 13.3723 18.6304 13.4169C18.667 13.4617 18.7135 13.4839 18.7689 13.4839H19.9056C20.0165 13.4839 20.0904 13.4259 20.1274 13.3097L20.377 11.7554C20.3862 11.684 20.4185 11.6259 20.474 11.5812C20.5295 11.5365 20.5987 11.5073 20.682 11.494C20.7651 11.4807 20.8435 11.474 20.9176 11.474C20.9915 11.474 21.0792 11.4785 21.181 11.4874C21.2826 11.4963 21.3475 11.5007 21.375 11.5007C22.1699 11.5007 22.7936 11.2842 23.2465 10.8508C23.6993 10.4176 23.9257 9.81689 23.9257 9.04842C23.9258 8.52136 23.7478 8.13946 23.3921 7.90264V7.90276ZM21.9712 10.1071C21.7679 10.2411 21.4629 10.3081 21.0563 10.3081L20.6127 10.3215L20.8483 8.88762C20.8666 8.78948 20.9267 8.74025 21.0285 8.74025H21.2779C21.4813 8.74025 21.643 8.74922 21.7633 8.76703C21.8832 8.78497 21.9989 8.84072 22.1098 8.93447C22.2208 9.02831 22.2762 9.16462 22.2762 9.3432C22.2762 9.71855 22.1744 9.97303 21.9712 10.1071Z" fill="#009CDE"/>
</g>
<defs>
<clipPath id="clip0_60_1683">
<rect width="34.0712" height="21.957" fill="white"/>
</clipPath>
</defs>
</svg>
