<svg width="17" height="17" viewBox="0 0 17 17" fill="none" xmlns="http://www.w3.org/2000/svg">
<path d="M16.9562 6.40477C16.847 6.06669 16.5471 5.82657 16.1923 5.79459L11.3733 5.35702L9.46774 0.896859C9.32723 0.569986 9.00724 0.358398 8.6517 0.358398C8.29617 0.358398 7.97618 0.569986 7.83567 0.897623L5.9301 5.35702L1.11033 5.79459C0.756194 5.82733 0.457092 6.06669 0.347158 6.40477C0.237224 6.74285 0.338751 7.11367 0.606643 7.34743L4.24924 10.542L3.17513 15.2735C3.09653 15.6214 3.23156 15.981 3.52021 16.1897C3.67537 16.3018 3.8569 16.3588 4.03995 16.3588C4.19778 16.3588 4.35434 16.3163 4.49484 16.2322L8.6517 13.7478L12.807 16.2322C13.1111 16.4151 13.4944 16.3984 13.7824 16.1897C14.0712 15.9804 14.2061 15.6206 14.1275 15.2735L13.0534 10.542L16.696 7.34806C16.9639 7.11367 17.0662 6.74349 16.9562 6.40477Z" fill="#FFC107"/>
</svg>
