<svg width="18" height="17" viewBox="0 0 18 17" fill="none" xmlns="http://www.w3.org/2000/svg">
<path d="M16.9785 6.40477C16.8692 6.06669 16.5693 5.82657 16.2145 5.79459L11.3955 5.35702L9.48995 0.896859C9.34945 0.569986 9.02945 0.358398 8.67392 0.358398C8.31839 0.358398 7.99839 0.569986 7.85789 0.897623L5.95232 5.35702L1.13254 5.79459C0.778411 5.82733 0.479309 6.06669 0.369375 6.40477C0.259441 6.74285 0.360967 7.11367 0.62886 7.34743L4.27146 10.542L3.19734 15.2735C3.11875 15.6214 3.25377 15.981 3.54243 16.1897C3.69759 16.3018 3.87911 16.3588 4.06217 16.3588C4.22 16.3588 4.37655 16.3163 4.51706 16.2322L8.67392 13.7478L12.8292 16.2322C13.1333 16.4151 13.5166 16.3984 13.8046 16.1897C14.0934 15.9804 14.2283 15.6206 14.1497 15.2735L13.0756 10.542L16.7182 7.34806C16.9861 7.11367 17.0884 6.74349 16.9785 6.40477Z" fill="#D4DEF7"/>
</svg>
