<svg width="17" height="16" viewBox="0 0 17 16" fill="none" xmlns="http://www.w3.org/2000/svg">
<path d="M14.049 1.99141C15.2077 3.14838 15.8816 4.70363 15.9334 6.34023C15.9853 7.97682 15.4111 9.57159 14.3279 10.7995C13.2447 12.0275 11.7341 12.7962 10.1038 12.9491C8.50327 13.0991 6.90568 12.6444 5.62484 11.6766L2.29364 15.0085L2.29363 15.0085C2.21079 15.0914 2.11245 15.1571 2.00421 15.2019C1.89598 15.2468 1.77997 15.2698 1.66282 15.2698C1.54566 15.2698 1.42966 15.2468 1.32142 15.2019C1.21319 15.1571 1.11484 15.0914 1.032 15.0085C0.949162 14.9257 0.883451 14.8274 0.838619 14.7191C0.793787 14.6109 0.77071 14.4949 0.77071 14.3777C0.77071 14.2606 0.793787 14.1446 0.838619 14.0363C0.883452 13.9281 0.949162 13.8298 1.032 13.7469L1.03201 13.7469L4.36374 10.416C3.39846 9.13496 2.94581 7.53846 3.09671 5.93943C3.25044 4.31054 4.01895 2.80139 5.24589 1.719C6.47283 0.636623 8.06603 0.0623154 9.70138 0.11292C11.3367 0.163525 12.8914 0.835233 14.049 1.99141ZM14.049 1.99141L13.9784 2.06217L14.049 1.99141ZM6.21101 3.25366C5.77345 3.68416 5.42545 4.19703 5.18708 4.76269C4.94872 5.32835 4.82471 5.93561 4.82221 6.54944C4.81971 7.16327 4.93877 7.77152 5.17252 8.3391C5.40627 8.90669 5.75008 9.42238 6.18413 9.85642C6.61817 10.2905 7.13386 10.6343 7.70145 10.868C8.26903 11.1018 8.87728 11.2208 9.49111 11.2183C10.1049 11.2158 10.7122 11.0918 11.2779 10.8535C11.8435 10.6151 12.3564 10.2671 12.7869 9.82954C13.6472 8.95509 14.1271 7.77613 14.1221 6.54944C14.1171 5.32275 13.6276 4.14773 12.7602 3.28033C11.8928 2.41292 10.7178 1.92341 9.49111 1.91841C8.26442 1.91342 7.08545 2.39335 6.21101 3.25366Z" fill="white" stroke="white" stroke-width="0.2"/>
</svg>
