<svg width="65" height="65" viewBox="0 0 65 65" fill="none" xmlns="http://www.w3.org/2000/svg">
<circle cx="32.5" cy="32.5" r="32.5" fill="#0156FF"/>
<g clip-path="url(#clip0_60_1643)">
<g clip-path="url(#clip1_60_1643)">
<path d="M47.6413 41.2507L44.4206 38.0297C44.0885 38.7286 43.4533 39.2657 42.6474 39.4572L42.2086 39.5614L42.1044 40.0005C41.9263 40.7504 41.0888 42.1626 39.3258 42.0193L38.8758 41.9827L38.6411 42.368C38.2459 43.0165 37.5826 43.4597 36.8452 43.5911L41.0733 47.8187C41.2887 48.0341 41.6002 48.1226 41.8967 48.0526C42.1932 47.9826 42.4323 47.7641 42.5286 47.4752L43.7208 43.8981L47.2978 42.7059C47.5868 42.6096 47.8053 42.3705 47.8753 42.074C47.9452 41.7776 47.8567 41.466 47.6413 41.2507Z" fill="white"/>
<path d="M27.1566 42.3681L26.9219 41.9829L26.4718 42.0194C24.7089 42.1627 23.8714 40.7505 23.6933 40.0006L23.5891 39.5615L23.1503 39.4573C22.3444 39.2658 21.7091 38.7287 21.377 38.0298L18.1564 41.2507C17.941 41.4661 17.8525 41.7777 17.9225 42.0742C17.9924 42.3706 18.211 42.6097 18.4999 42.706L22.0769 43.8982L23.2691 47.4753C23.3655 47.7642 23.6045 47.9827 23.901 48.0527C24.1975 48.1227 24.5091 48.0342 24.7244 47.8188L28.9525 43.5912C28.215 43.4597 27.5518 43.0166 27.1566 42.3681Z" fill="white"/>
<path d="M37.14 41.4533L37.9384 40.1432L39.4678 40.2674C39.8995 40.3024 40.2938 40.0167 40.394 39.5944L40.7485 38.1015L42.241 37.7471C42.6632 37.6468 42.949 37.2533 42.9139 36.8208L42.7897 35.2918L44.0998 34.4934C44.4703 34.2676 44.6206 33.8052 44.4536 33.4047L43.8632 31.9887L44.8624 30.8245C45.145 30.4953 45.145 30.009 44.8625 29.6797L43.8632 28.5152L44.4536 27.0991C44.6206 26.6986 44.4703 26.2361 44.0998 26.0103L42.7897 25.2119L42.9139 23.683C42.949 23.2504 42.6632 22.857 42.241 22.7567L40.7485 22.4022L40.394 20.9093C40.2937 20.487 39.8995 20.2014 39.4678 20.2364L37.9384 20.3606L37.14 19.0504C36.9142 18.6798 36.4515 18.5297 36.0511 18.6966L34.6352 19.2874L33.4711 18.2881C33.1419 18.0055 32.6555 18.0055 32.3263 18.2881L31.1623 19.2873L29.7464 18.6965C29.3458 18.5295 28.8834 18.6797 28.6575 19.0503L27.859 20.3605L26.3297 20.2362C25.8971 20.2016 25.5037 20.4869 25.4035 20.9092L25.0489 22.4021L23.5565 22.7567C23.1343 22.857 22.8484 23.2504 22.8836 23.683L23.0078 25.2119L21.6977 26.0103C21.3272 26.2361 21.1769 26.6985 21.3439 27.0991L21.9343 28.5152L20.935 29.6797C20.6525 30.009 20.6525 30.4953 20.9351 30.8245L21.9343 31.9887L21.344 33.4047C21.177 33.8052 21.3273 34.2676 21.6978 34.4934L23.0079 35.2918L22.8837 36.8208C22.8486 37.2533 23.1344 37.6468 23.5566 37.7471L25.0491 38.1015L25.4036 39.5944C25.5039 40.0167 25.8973 40.302 26.3298 40.2674L27.8592 40.1432L28.6576 41.4533C28.8834 41.8239 29.3459 41.9742 29.7465 41.8071L31.1624 41.2164L32.3264 42.2155C32.6556 42.4981 33.142 42.4981 33.4713 42.2155L34.6353 41.2164L36.0511 41.8071C36.4515 41.9741 36.9142 41.8239 37.14 41.4533ZM32.5788 36.5219C32.2357 36.8651 31.6791 36.8652 31.3359 36.5219L26.1581 31.3442C25.8149 31.001 25.8149 30.4444 26.1581 30.1012L28.8209 27.4384C29.164 27.0952 29.7206 27.0952 30.0638 27.4384L31.9573 29.3319L36.2043 25.0849C36.5475 24.7416 37.104 24.7416 37.4473 25.0849L40.11 27.7476C40.4532 28.0909 40.4532 28.6473 40.11 28.9906L32.5788 36.5219Z" fill="white"/>
<path d="M32.5792 31.1963C32.236 31.5396 31.6795 31.5396 31.3362 31.1963L29.4427 29.3029L28.0229 30.7227L31.9578 34.6574L38.246 28.3691L36.8263 26.9493L32.5792 31.1963Z" fill="white"/>
</g>
</g>
<defs>
<clipPath id="clip0_60_1643">
<rect width="30" height="30" fill="white" transform="translate(18 18)"/>
</clipPath>
<clipPath id="clip1_60_1643">
<rect width="30" height="30" fill="white" transform="translate(17.8989 18.0762)"/>
</clipPath>
</defs>
</svg>
