<svg width="34" height="22" viewBox="0 0 34 22" fill="none" xmlns="http://www.w3.org/2000/svg">
<g clip-path="url(#clip0_60_1675)">
<path d="M0.0712891 2.74463C0.0712891 1.22881 1.31422 0 2.84746 0H30.6092C32.1424 0 33.3854 1.22881 33.3854 2.74463V19.2124C33.3854 20.7282 32.1424 21.957 30.6092 21.957H2.84746C1.31422 21.957 0.0712891 20.7282 0.0712891 19.2124V2.74463Z" fill="#D8E3F3"/>
<path d="M28.7426 6.88269H26.9974C26.4697 6.88269 26.0639 7.04319 25.8203 7.56483L22.4922 15.0684H24.8463C24.8463 15.0684 25.2521 14.0653 25.3333 13.8245C25.5768 13.8245 27.8903 13.8245 28.215 13.8245C28.2962 14.1054 28.4991 15.0283 28.4991 15.0283H30.6097L28.7426 6.88269ZM25.9827 12.1392C26.1856 11.6577 26.8756 9.85202 26.8756 9.85202C26.8756 9.89215 27.0786 9.37051 27.1597 9.08963L27.3221 9.8119C27.3221 9.8119 27.7685 11.7781 27.8497 12.1793H25.9827V12.1392Z" fill="#3362AB"/>
<path d="M22.6546 12.3819C22.6546 14.0672 21.1122 15.1908 18.7176 15.1908C17.7029 15.1908 16.7288 14.9901 16.2012 14.7494L16.5259 12.9036L16.81 13.024C17.5406 13.345 18.0276 13.4653 18.9205 13.4653C19.5699 13.4653 20.2599 13.2246 20.2599 12.6628C20.2599 12.3017 19.9758 12.0609 19.0829 11.6597C18.2305 11.2584 17.0941 10.6164 17.0941 9.45273C17.0941 7.84769 18.677 6.76428 20.9093 6.76428C21.7616 6.76428 22.4922 6.92479 22.9387 7.12542L22.614 8.89097L22.4516 8.73046C22.0458 8.56996 21.5181 8.40945 20.747 8.40945C19.8946 8.44958 19.4887 8.81071 19.4887 9.13172C19.4887 9.49286 19.9758 9.77374 20.747 10.1349C22.0458 10.7368 22.6546 11.4189 22.6546 12.3819Z" fill="#3362AB"/>
<path d="M2.84766 6.96422L2.88824 6.80371H6.37875C6.8658 6.80371 7.23109 6.96422 7.35285 7.48586L8.12401 11.0972C7.35285 9.17115 5.56701 7.60623 2.84766 6.96422Z" fill="#F9B50B"/>
<path d="M13.0352 6.88436L9.5041 15.03H7.10945L5.08008 8.20853C6.54122 9.13143 7.75884 10.576 8.2053 11.5791L8.44883 12.4218L10.6405 6.84424H13.0352V6.88436Z" fill="#3362AB"/>
<path d="M13.9684 6.84424H16.2007L14.7802 15.03H12.5479L13.9684 6.84424Z" fill="#3362AB"/>
</g>
<defs>
<clipPath id="clip0_60_1675">
<rect width="33.3141" height="21.957" fill="white" transform="translate(0.0712891)"/>
</clipPath>
</defs>
</svg>
